<?xml version="1.0" encoding="UTF-8"?>
<svg version="1.1" xmlns="http://www.w3.org/2000/svg" width="512" height="512">
<path d="M0 0 C32.78805903 20.68628452 43.66088193 68.38314347 51.68652344 103.37548828 C55 118.13895558 55 118.13895558 55 123 C56.22009766 122.59273682 56.22009766 122.59273682 57.46484375 122.17724609 C86.82248997 112.42301128 116.81930557 103.04541687 148 102 C148.86367188 101.96003906 149.72734375 101.92007813 150.6171875 101.87890625 C167.1566506 101.46173878 185.30105326 103.47604477 198 115 C205.35213981 123.75545281 206.93261817 132.62733089 206.22509766 143.84765625 C204.35544548 161.72493776 193.01666421 178.40496756 182 192 C181.29359375 192.8971875 180.5871875 193.794375 179.859375 194.71875 C171.32704367 205.39951008 161.88477585 215.19604723 152.25 224.875 C151.55326172 225.57641113 150.85652344 226.27782227 150.13867188 227.00048828 C143.58389079 233.53507692 136.62569932 239.53880248 129.5 245.4375 C128.96375 245.88287109 128.4275 246.32824219 127.875 246.78710938 C126.58411008 247.85900904 125.29217428 248.92964897 124 250 C126.73049982 253.63854976 129.53806009 256.40056273 133.125 259.1875 C137.08713876 262.35615302 140.75196655 265.63560069 144.3125 269.25 C149.34139162 274.49643067 149.34139162 274.49643067 155 279 C157.92479173 278.92688021 159.87186864 278.05312764 162.5625 276.9375 C171.53384036 274.49077081 179.87653621 275.58223078 188 280 C195.10680257 284.69317151 198.61981013 291.25210675 200.4375 299.4375 C201.62758222 307.74496714 200.04478544 313.52610511 195.5 320.5 C193.81564142 323.19016229 193.81564142 323.19016229 193 326 C193.91485332 328.92567306 195.31176621 330.87400584 197.12890625 333.3359375 C204.83087378 344.30199565 207.60126978 359.39226876 205.375 372.5 C203.45039308 380.15833169 198.78836639 386.22369162 192.32421875 390.65625 C180.00690425 397.77752091 167.64190781 399.38053381 153.625 399.3125 C151.77962646 399.30404053 151.77962646 399.30404053 149.89697266 399.29541016 C118.08970295 398.87781829 84.20825143 390.34415766 55 378 C54.96406738 378.55727783 54.92813477 379.11455566 54.89111328 379.6887207 C54.27116041 387.3654688 52.65209885 394.70422159 50.875 402.1875 C50.71971832 402.84373352 50.56443665 403.49996704 50.40444946 404.17608643 C43.07693658 435.01703727 33.74229314 468.00295054 12 492 C11.42765625 492.66515625 10.8553125 493.3303125 10.265625 494.015625 C4.35938835 500.48436038 -3.81561802 505.43945423 -12.62890625 506.23828125 C-23.83151807 506.52170285 -32.0853877 503.6388065 -40.6015625 496.3046875 C-70.50487504 467.57023408 -82.35639405 416.81430636 -88 377 C-88 375.68 -88 374.36 -88 373 C-89.04865234 373.35827881 -90.09730469 373.71655762 -91.17773438 374.08569336 C-95.09634869 375.42223251 -99.01834659 376.74859333 -102.94140625 378.07202148 C-104.63374188 378.64447662 -106.32516749 379.21962976 -108.015625 379.79760742 C-110.45594517 380.63143144 -112.89945326 381.4552607 -115.34375 382.27734375 C-116.08991577 382.53466782 -116.83608154 382.79199188 -117.6048584 383.05711365 C-122.41915315 384.66272013 -126.9450924 385.51798559 -132 386 C-132.03520752 386.60859863 -132.07041504 387.21719727 -132.10668945 387.84423828 C-132.6358108 395.80359352 -134.9129592 401.35885473 -140.8125 406.8125 C-147.72032862 412.44918544 -155.09979583 414.58361995 -164 414 C-170.44861945 412.68120021 -176.25601027 410.68930995 -181 406 C-181.86727403 404.48050084 -182.71238279 402.94821063 -183.5390625 401.40625 C-185.31519602 398.68874374 -186.28141899 397.26603612 -189.3515625 396.12939453 C-192.13192372 395.76891987 -194.82172072 395.65039374 -197.625 395.625 C-199.60189509 395.52596073 -201.5784815 395.42054389 -203.5546875 395.30859375 C-204.49795898 395.26331543 -205.44123047 395.21803711 -206.41308594 395.17138672 C-218.25331946 394.38695449 -229.19260119 389.80703813 -237.30859375 381.1171875 C-243.81353028 372.97474962 -244.77835545 364.16508977 -244 354 C-238.88456821 321.50412754 -211.9846556 294.94476944 -189.8125 272.6875 C-188.96905029 271.83937744 -188.12560059 270.99125488 -187.2565918 270.11743164 C-180.81207883 263.68936683 -174.17605528 257.60629318 -167 252 C-168.56339644 248.00775553 -171.36073589 245.58430972 -174.5 242.8125 C-175.03753906 242.32837646 -175.57507813 241.84425293 -176.12890625 241.34545898 C-178.60548136 239.11807827 -181.10009741 236.91135953 -183.59375 234.703125 C-192.95835229 226.37227751 -201.97654216 217.64419632 -210 208 C-210.44923828 207.47519043 -210.89847656 206.95038086 -211.36132812 206.40966797 C-228.14959959 186.7751091 -244.9586294 163.81957436 -244.3203125 136.92578125 C-243.73045419 129.69642029 -241.26411649 123.12184307 -236 118 C-222.87682761 107.733206 -208.77105915 105.60169919 -192.5 105.625 C-191.485392 105.62631424 -191.485392 105.62631424 -190.45028687 105.62765503 C-155.25242752 105.77659105 -121.91665353 116.55627109 -89 128 C-88.77860352 126.98800537 -88.55720703 125.97601074 -88.32910156 124.93334961 C-87.49006602 121.10251714 -86.64652205 117.27268812 -85.80175781 113.44311523 C-85.43989068 111.79982215 -85.07917347 110.15627534 -84.71972656 108.51245117 C-84.19654458 106.1208665 -83.66971111 103.73012894 -83.140625 101.33984375 C-82.96688354 100.55290131 -82.79314209 99.76595886 -82.61413574 98.95516968 C-81.7619372 95.15849077 -80.85632495 91.39229004 -79.80664062 87.64501953 C-79.61632263 86.96524551 -79.42600464 86.2854715 -79.22991943 85.58509827 C-78.70772529 83.75457732 -78.16844712 81.92895416 -77.62792969 80.10375977 C-76.986943 76.93546128 -77.0223032 75.05662858 -78 72 C-79.45982619 70.41922341 -79.45982619 70.41922341 -81.3125 69.1875 C-86.13123519 65.36813289 -88.09163293 60.72510122 -90 55 C-91.04671789 45.04955526 -89.90122396 37.23164361 -84 29 C-81.54815759 26.49862542 -79.04516748 24.71178054 -76 23 C-74.96875 22.38125 -73.9375 21.7625 -72.875 21.125 C-66.77851196 18.71476054 -58.1333476 18.9555508 -52 21 C-51.76152344 20.28585938 -51.52304688 19.57171875 -51.27734375 18.8359375 C-46.70395684 8.6821794 -36.22032102 0.85164274 -26.0625 -3.16015625 C-17.04063937 -5.63426344 -8.1273765 -4.51055431 0 0 Z M-41 24 C-41.93892348 26.05731688 -41.93892348 26.05731688 -42 28 C-40.22816986 30.46557594 -40.22816986 30.46557594 -38 33 C-33.63648351 40.75736264 -32.91447455 48.32802313 -35 56.9375 C-37.32453512 64.02023847 -42.25683086 69.76391161 -48.75 73.4375 C-52.19756817 74.88858094 -55.57758768 75.51731795 -59.265625 76.09765625 C-60.34102539 76.26918213 -61.41642578 76.44070801 -62.52441406 76.61743164 C-63.7498291 76.80680298 -63.7498291 76.80680298 -65 77 C-68.73174325 90.18484579 -72.25071319 103.37057849 -74.9375 116.8125 C-75.14850342 117.86042725 -75.35950684 118.90835449 -75.5769043 119.98803711 C-76.43373742 124.40888889 -77.10953242 128.48292329 -77 133 C-68.38676834 137.47497029 -59.43617339 141.19336875 -50.49951172 144.96557617 C-39.16204475 149.7797486 -39.16204475 149.7797486 -33.81640625 152.91015625 C-26.49496576 157.31224406 -26.49496576 157.31224406 -18.1640625 157.05078125 C-14.62678216 155.4709173 -11.41259976 153.43292491 -8.16357422 151.33496094 C-4.36825625 148.99318722 -0.34511681 147.14326179 3.6875 145.25 C4.53691162 144.84362305 5.38632324 144.43724609 6.26147461 144.01855469 C18.61710815 138.17653134 31.33583773 133.12726645 44 128 C43.46269918 119.79996292 41.82680899 111.98528655 39.9375 104 C39.78382965 103.3489328 39.6301593 102.6978656 39.47183228 102.02706909 C27.5192197 50.43547934 27.5192197 50.43547934 -4.8125 10.375 C-19.5618064 2.3715004 -32.3132889 12.00877693 -41 24 Z M57 135 C57.14099121 136.13091064 57.28198242 137.26182129 57.42724609 138.42700195 C58.08470757 143.72117244 58.73191858 149.01656482 59.375 154.3125 C59.49082428 155.26506683 59.60664856 156.21763367 59.72598267 157.19906616 C61.29111935 170.14947539 62.65416119 183.06053791 63.36669922 196.08911133 C63.42486816 197.0767749 63.48303711 198.06443848 63.54296875 199.08203125 C63.58446045 199.91968018 63.62595215 200.7573291 63.66870117 201.62036133 C64.18275281 205.31266882 64.98223943 208.05784853 67.76147461 210.63061523 C68.46796143 211.10184814 69.17444824 211.57308105 69.90234375 212.05859375 C70.70124023 212.60257812 71.50013672 213.1465625 72.32324219 213.70703125 C73.18594727 214.27808594 74.04865234 214.84914063 74.9375 215.4375 C76.75537288 216.67362714 78.57174091 217.91196979 80.38671875 219.15234375 C81.78156494 220.10149658 81.78156494 220.10149658 83.20458984 221.06982422 C87.62212794 224.12004746 91.93877424 227.30201571 96.25 230.5 C97.39069946 231.34389282 97.39069946 231.34389282 98.55444336 232.20483398 C103.38378986 235.7843198 108.19451453 239.38856542 113 243 C116.69186108 240.92783641 119.7061081 238.62052693 122.8125 235.75 C125.77256477 233.02654726 128.75239543 230.33662934 131.7890625 227.69921875 C136.13191672 223.90936995 140.35976381 220.00660627 144.5625 216.0625 C145.27857422 215.39798828 145.99464844 214.73347656 146.73242188 214.04882812 C150.8978797 210.14110563 154.77042852 206.10642225 158.4831543 201.76635742 C160.29715989 199.65395914 162.21136989 197.64709497 164.125 195.625 C173.03922288 185.69157416 180.85783226 174.7227874 187.125 162.9375 C187.47884766 162.27226318 187.83269531 161.60702637 188.19726562 160.92163086 C192.8252438 151.84794077 196.87809714 141.41957894 193.875 131.25 C191.3850918 124.91915718 187.67375771 120.66372493 181.44189453 117.94042969 C172.36702636 114.44548946 163.47320695 113.47565757 153.8125 113.5625 C152.595625 113.57079834 151.37875 113.57909668 150.125 113.58764648 C117.98610632 114.17377247 86.95369838 124.10205051 57 135 Z M-228.4375 127.3125 C-232.47781685 134.26184499 -233.87800409 140.05124968 -232.44140625 148.1484375 C-228.35379533 163.15451135 -220.76716752 175.98672427 -211 188 C-210.28070313 188.91007812 -209.56140625 189.82015625 -208.8203125 190.7578125 C-195.10292583 207.89234175 -179.41201161 225.03811586 -161.99609375 238.44140625 C-160.18125984 239.85846835 -158.5850611 241.33391342 -157 243 C-154.01105446 241.60775637 -151.48771899 239.97727887 -148.8671875 237.98046875 C-148.07038574 237.3769458 -147.27358398 236.77342285 -146.45263672 236.15161133 C-145.6020166 235.50345459 -144.75139648 234.85529785 -143.875 234.1875 C-129.04395147 222.98549682 -114.03825221 212.18187761 -98.48022461 202.00878906 C-97.01633405 201.07836667 -97.01633405 201.07836667 -96 200 C-95.64833315 197.10252524 -95.35463501 194.2188354 -95.09765625 191.3125 C-95.01503036 190.42199951 -94.93240448 189.53149902 -94.84727478 188.61401367 C-94.58146008 185.74304601 -94.32160623 182.87158026 -94.0625 180 C-93.7228465 176.27057241 -93.38036105 172.54141781 -93.03515625 168.8125 C-92.95101471 167.90201904 -92.86687317 166.99153809 -92.78018188 166.0534668 C-91.99442562 157.68479293 -91.03367434 149.34130247 -90 141 C-122.45111427 126.95900315 -197.28692566 97.75939101 -228.4375 127.3125 Z M36.78515625 142.39453125 C36.18103912 142.65765106 35.576922 142.92077087 34.95449829 143.19186401 C32.98511022 144.05371702 31.02379137 144.9323948 29.0625 145.8125 C27.7115992 146.40983764 26.36044192 147.00659555 25.0090332 147.6027832 C16.86277431 151.2108066 8.75099065 154.89809611 0.6875 158.6875 C-0.1883374 159.09653564 -1.0641748 159.50557129 -1.96655273 159.92700195 C-3.15293335 160.49487427 -3.15293335 160.49487427 -4.36328125 161.07421875 C-5.04688721 161.39994873 -5.73049316 161.72567871 -6.43481445 162.0612793 C-8.18356876 162.91961225 -8.18356876 162.91961225 -9 165 C-7.906875 165.55945313 -6.81375 166.11890625 -5.6875 166.6953125 C14.06070871 176.89584249 33.10428969 188.30947216 52 200 C53.19403704 196.41788889 52.8913851 194.05670134 52.546875 190.296875 C52.48693863 189.63004196 52.42700226 188.96320892 52.36524963 188.27616882 C52.16711384 186.10007359 51.95903687 183.92507312 51.75 181.75 C51.61088339 180.25789741 51.4718048 178.76579127 51.33276367 177.27368164 C50.18397875 165.1422465 48.71653907 153.06446965 47 141 C43.0024307 139.38849691 40.59788254 140.71265104 36.78515625 142.39453125 Z M-79 145 C-80.88082769 152.59690837 -81.81625724 160.15954027 -82.625 167.9375 C-82.7590625 169.14857422 -82.893125 170.35964844 -83.03125 171.60742188 C-83.75570309 178.43428343 -84.1960051 185.13487196 -84 192 C-77.66443311 188.94297822 -71.65406153 185.49425001 -65.625 181.875 C-55.85532494 176.05143924 -45.97819654 170.45721119 -36 165 C-38.60741074 161.91460221 -41.59556074 160.63322923 -45.25 159.00390625 C-45.86335205 158.7290892 -46.4767041 158.45427216 -47.10864258 158.17112732 C-48.40836793 157.59053542 -49.70959833 157.01330264 -51.01220703 156.43920898 C-52.96886117 155.57623367 -54.92025269 154.70219594 -56.87109375 153.82617188 C-64.14353613 150.58073678 -71.46243973 147.58467016 -79 145 Z M-28.55859375 173.24609375 C-29.95356079 173.99524048 -29.95356079 173.99524048 -31.37670898 174.75952148 C-32.38677002 175.31325439 -33.39683105 175.8669873 -34.4375 176.4375 C-35.48558838 177.00863525 -36.53367676 177.57977051 -37.61352539 178.16821289 C-46.17915283 182.88858768 -54.5821193 187.85642904 -62.9375 192.9375 C-63.52651093 193.29544647 -64.11552185 193.65339294 -64.72238159 194.02218628 C-68.49822917 196.32193132 -72.25054001 198.65758683 -76 201 C-76.91668457 201.5480127 -77.83336914 202.09602539 -78.77783203 202.66064453 C-79.59493652 203.1657959 -80.41204102 203.67094727 -81.25390625 204.19140625 C-82.31266968 204.83057983 -82.31266968 204.83057983 -83.39282227 205.48266602 C-86.26739441 208.19654508 -85.98938727 211.72045388 -86.13371277 215.52207947 C-86.14264106 216.89221875 -86.14614826 218.26240027 -86.14526367 219.63256836 C-86.14862228 220.38443924 -86.1519809 221.13631012 -86.15544128 221.91096497 C-86.16491152 224.38727487 -86.1668923 226.86351689 -86.16796875 229.33984375 C-86.17118365 231.06710335 -86.1745479 232.79436267 -86.17805481 234.5216217 C-86.18403596 238.13868847 -86.18589571 241.75573137 -86.18530273 245.37280273 C-86.18520108 250.00075208 -86.19886153 254.62854813 -86.21607494 259.25646114 C-86.22720829 262.82272541 -86.22922154 266.38895275 -86.22869301 269.95523262 C-86.22987079 271.66121512 -86.23428123 273.36719865 -86.24202538 275.07316399 C-86.25185386 277.46156356 -86.24893622 279.84963188 -86.24291992 282.23803711 C-86.24853943 282.93796783 -86.25415894 283.63789856 -86.25994873 284.35903931 C-86.23285086 288.60559758 -85.67962816 292.09054093 -84 296 C-81.63085128 298.07094452 -81.63085128 298.07094452 -78.63671875 299.6640625 C-76.97999146 300.62614624 -76.97999146 300.62614624 -75.28979492 301.60766602 C-74.08929087 302.28057639 -72.88851983 302.95301063 -71.6875 303.625 C-70.45914357 304.32908214 -69.23169261 305.03474619 -68.00512695 305.74194336 C-65.52589184 307.16755392 -63.04111221 308.58263447 -60.55078125 309.98876953 C-56.44778408 312.30705678 -52.37713255 314.67981594 -48.30639648 317.05419922 C-45.74400614 318.52995642 -43.15865578 319.95643168 -40.56640625 321.37890625 C-37.66233677 322.98684618 -35.02130562 324.67787341 -32.40234375 326.71484375 C-28.69529754 329.29961376 -26.51333623 330.53294369 -22 331 C-14.76920332 329.00574628 -8.38842832 324.81178245 -2.06738281 320.89208984 C0.92465267 319.04647738 3.95138128 317.28727665 7.0078125 315.55078125 C13.0504952 312.10836074 19.03077012 308.56795846 25 305 C26.05477539 304.37174316 27.10955078 303.74348633 28.19628906 303.09619141 C31.34389225 301.21765979 34.4856742 299.32982698 37.625 297.4375 C38.57890625 296.86596191 39.5328125 296.29442383 40.515625 295.70556641 C41.85753906 294.89031494 41.85753906 294.89031494 43.2265625 294.05859375 C44.00596191 293.58736084 44.78536133 293.11612793 45.58837891 292.63061523 C51.74546874 288.85998609 51.74546874 288.85998609 54.7484436 282.76817322 C54.74655533 280.93761131 54.74655533 280.93761131 54.74462891 279.07006836 C54.75193024 278.39301346 54.75923157 277.71595856 54.76675415 277.01838684 C54.78290369 274.79116943 54.75581385 272.56689177 54.7265625 270.33984375 C54.72552459 268.78715517 54.72656273 267.23446394 54.72958374 265.68177795 C54.72940459 262.43255215 54.70860823 259.1843219 54.67236328 255.93530273 C54.62694854 251.7731329 54.62590936 247.61241419 54.63939857 243.45006466 C54.64608466 240.24576443 54.63280707 237.04179441 54.61314011 233.83755684 C54.60544965 232.30299165 54.60313409 230.76838969 54.6063118 229.23380852 C54.60705462 227.08867388 54.58178248 224.94539279 54.54931641 222.80053711 C54.54010162 221.5809581 54.53088684 220.36137909 54.52139282 219.10484314 C53.90170958 215.41469021 52.88374478 214.29522243 50 212 C48.65164612 211.03956931 47.26918996 210.12551468 45.859375 209.2578125 C44.64374878 208.50576538 44.64374878 208.50576538 43.40356445 207.73852539 C42.52788818 207.20606201 41.65221191 206.67359863 40.75 206.125 C39.82469482 205.55837646 38.89938965 204.99175293 37.94604492 204.40795898 C22.97391835 195.28191245 7.84120265 186.44610238 -7.56582642 178.07418823 C-9.28277906 177.14115114 -10.99724851 176.20354917 -12.71166992 175.26586914 C-13.75170166 174.70633545 -14.7917334 174.14680176 -15.86328125 173.5703125 C-16.78407471 173.07289551 -17.70486816 172.57547852 -18.65356445 172.06298828 C-22.71754793 170.22191201 -24.84187802 171.24733975 -28.55859375 173.24609375 Z M-106.375 220.625 C-107.22118896 221.20531982 -108.06737793 221.78563965 -108.93920898 222.38354492 C-128.21135086 235.24651043 -128.21135086 235.24651043 -146 250 C-146 250.66 -146 251.32 -146 252 C-144.26787969 253.50871963 -142.45883593 254.92919907 -140.625 256.3125 C-140.0484668 256.74836426 -139.47193359 257.18422852 -138.87792969 257.63330078 C-131.01053108 263.54731421 -123.01039359 269.28208186 -115 275 C-114.19224121 275.57733887 -113.38448242 276.15467773 -112.55224609 276.74951172 C-110.18312204 278.44066253 -107.81105209 280.12757105 -105.4375 281.8125 C-104.70499023 282.33440918 -103.97248047 282.85631836 -103.21777344 283.39404297 C-100.34915136 285.85891649 -100.34915136 285.85891649 -97 287 C-97 263.24 -97 239.48 -97 215 C-100.02937541 215 -103.96166612 218.96803135 -106.375 220.625 Z M65 223 C65 241.48 65 259.96 65 279 C70.75246057 275.73907726 70.75246057 275.73907726 76.1640625 272.1171875 C76.88803223 271.59406982 77.61200195 271.07095215 78.35791016 270.53198242 C79.1060498 269.98517822 79.85418945 269.43837402 80.625 268.875 C81.40536621 268.30821533 82.18573242 267.74143066 82.98974609 267.1574707 C89.75336239 262.22494602 96.4082308 257.15928225 103 252 C101.56947206 248.558671 99.90570965 246.8775142 96.921875 244.6796875 C96.09671387 244.06617432 95.27155273 243.45266113 94.42138672 242.82055664 C93.5398291 242.17852295 92.65827148 241.53648926 91.75 240.875 C90.8542627 240.2142749 89.95852539 239.5535498 89.03564453 238.87280273 C86.36337057 236.90646204 83.6825095 234.95234399 81 233 C79.54421124 231.93107074 78.08847655 230.86206783 76.6328125 229.79296875 C75.38105111 228.88165376 74.12850782 227.9714113 72.875 227.0625 C72.30233398 226.64403809 71.72966797 226.22557617 71.13964844 225.79443359 C68.34988568 223.63836364 68.34988568 223.63836364 65 223 Z M-157 259 C-158.051875 259.96099609 -158.051875 259.96099609 -159.125 260.94140625 C-160.07375 261.80636719 -161.0225 262.67132813 -162 263.5625 C-162.928125 264.40941406 -163.85625 265.25632812 -164.8125 266.12890625 C-166.43730103 267.60534359 -168.07207138 269.06164837 -169.74047852 270.48876953 C-175.5424114 275.45585415 -180.96620334 280.78006037 -186.36303711 286.17773438 C-187.92608734 287.73860327 -189.49697365 289.29127888 -191.06835938 290.84375 C-197.49489541 297.23409446 -203.41108063 303.84981505 -209 311 C-209.52198975 311.65742188 -210.04397949 312.31484375 -210.58178711 312.9921875 C-222.57706608 328.26236133 -234.22446722 345.79873374 -232 366 C-230.71254235 371.26141028 -228.17241874 374.18738342 -223.8125 377.3125 C-215.12364459 382.57154407 -206.19955866 384.1894082 -196.125 384.0625 C-195.09246094 384.05573242 -195.09246094 384.05573242 -194.0390625 384.04882812 C-192.35933665 384.03716336 -190.67965625 384.01923271 -189 384 C-188.84144531 383.3709375 -188.68289062 382.741875 -188.51953125 382.09375 C-186.04747292 373.02498352 -182.80743553 366.84817643 -175.16015625 361.2265625 C-168.17438358 357.25995741 -160.8273851 357.1561235 -153 358 C-143.74397263 360.95899422 -138.44202196 366.60951407 -134 375 C-125.29166355 373.00267513 -116.8410806 370.4183243 -108.38720703 367.55615234 C-106.34436713 366.86463047 -104.29935572 366.17985412 -102.25390625 365.49609375 C-96.01277523 363.52953531 -96.01277523 363.52953531 -90 361 C-90.09062965 360.16007256 -90.09062965 360.16007256 -90.18309021 359.30317688 C-90.81819572 353.41355257 -91.45051412 347.52363353 -92.08129883 341.63354492 C-92.31627797 339.44271474 -92.55194014 337.2519577 -92.78833008 335.0612793 C-93.01784079 332.9335743 -93.24594229 330.8057168 -93.47257996 328.67770386 C-93.69586329 326.59984364 -93.9250845 324.52261258 -94.16035461 322.44607544 C-94.62531421 318.23557585 -95.07259151 314.10034139 -94.9987793 309.86083984 C-94.91087468 303.74968327 -94.91087468 303.74968327 -98.0324707 298.73168945 C-100.89361168 296.55126409 -103.80766624 294.77215304 -106.9375 293 C-109.1437711 291.64492485 -111.34818342 290.28681895 -113.55078125 288.92578125 C-114.64600098 288.26658691 -115.7412207 287.60739258 -116.86962891 286.92822266 C-121.27388807 284.21531992 -125.45741332 281.24756779 -129.625 278.1875 C-130.34381348 277.66567139 -131.06262695 277.14384277 -131.80322266 276.60620117 C-137.15339843 272.69541591 -142.38142805 268.6336808 -147.50048828 264.42456055 C-150.53114051 261.97168781 -153.29017952 260.22746371 -157 259 Z M107.96484375 261.82421875 C107.16409424 262.43467041 106.36334473 263.04512207 105.53833008 263.67407227 C104.68005615 264.33850342 103.82178223 265.00293457 102.9375 265.6875 C101.12860521 267.06641834 99.31868762 268.44399587 97.5078125 269.8203125 C96.59032227 270.51930664 95.67283203 271.21830078 94.72753906 271.93847656 C90.62941563 275.0359125 86.47878008 278.05764213 82.3125 281.0625 C81.60794678 281.57321045 80.90339355 282.0839209 80.17749023 282.61010742 C79.49630127 283.10099854 78.8151123 283.59188965 78.11328125 284.09765625 C77.11868896 284.81526123 77.11868896 284.81526123 76.10400391 285.54736328 C74.60363984 286.58323775 73.07015367 287.57180521 71.51708984 288.52685547 C70.2923999 289.28506592 70.2923999 289.28506592 69.04296875 290.05859375 C67.91991333 290.72652954 67.91991333 290.72652954 66.77416992 291.40795898 C62.99797759 294.79650311 63.72075715 300.70032466 63.38671875 305.4921875 C63.27430631 307.00369653 63.16141131 308.51516974 63.0480957 310.02661133 C62.98949371 310.81790436 62.93089172 311.60919739 62.87051392 312.42446899 C61.52953439 330.3799992 59.52238417 348.17373878 57 366 C91.11709467 380.15192988 142.65330996 397.62606911 179.4375 384.25 C185.33818142 381.61992654 189.52390215 378.38080298 192.9375 372.875 C196.45487061 362.87247733 193.52932189 352.42198634 189.15576172 343.22460938 C186.15966323 336.08910542 186.15966323 336.08910542 181 331 C179.65978013 331.30446608 178.32704239 331.64244247 177 332 C168.68328495 332.90431304 160.78120021 331.41767274 153.890625 326.4921875 C148.05719552 321.13241255 144.63635333 314.00846901 143.95703125 306.109375 C144.07685618 300.2270602 145.51501843 294.3249605 148 289 C143.92432193 284.80969348 139.73648082 280.83849809 135.30859375 277.0234375 C131.94518351 274.07547387 128.66626229 271.03715965 125.38793945 267.99511719 C123.93474273 266.65310595 122.46736838 265.32650101 121 264 C120.4730957 263.52208008 119.94619141 263.04416016 119.40332031 262.55175781 C114.77868059 258.49770905 112.80187072 258.09415115 107.96484375 261.82421875 Z M47.08984375 304.3515625 C46.27717041 304.86630127 45.46449707 305.38104004 44.62719727 305.91137695 C43.73959717 306.47687256 42.85199707 307.04236816 41.9375 307.625 C30.77195547 314.64476235 19.31662041 321.07473982 7.77832031 327.45654297 C3.98082408 329.56618894 0.20532402 331.71290472 -3.5625 333.875 C-5.17318359 334.79925781 -5.17318359 334.79925781 -6.81640625 335.7421875 C-7.53699219 336.15726562 -8.25757813 336.57234375 -9 337 C-5.93268586 339.47411146 -2.82565604 341.15766674 0.7421875 342.8203125 C1.88123535 343.35188965 3.0202832 343.8834668 4.19384766 344.43115234 C5.42062061 344.99637163 6.64767737 345.56097528 7.875 346.125 C8.49316589 346.41046692 9.11133179 346.69593384 9.74822998 346.99005127 C18.30895679 350.93879537 26.91520865 354.76441162 35.625 358.375 C37.00921143 358.95531982 37.00921143 358.95531982 38.42138672 359.54736328 C39.68619873 360.06145752 39.68619873 360.06145752 40.9765625 360.5859375 C42.07605225 361.03525635 42.07605225 361.03525635 43.19775391 361.49365234 C45.07972146 362.24033492 45.07972146 362.24033492 47 361 C47.63163674 358.24208831 47.63163674 358.24208831 48 354.8515625 C48.2460498 352.89573242 48.2460498 352.89573242 48.49707031 350.90039062 C48.66534831 349.47533523 48.83297772 348.05020312 49 346.625 C49.17541622 345.18163582 49.35087226 343.73827648 49.52636719 342.29492188 C51.12459708 328.89592535 52.17906141 315.46873237 53 302 C50.37092775 302 49.30112438 302.9332323 47.08984375 304.3515625 Z M-84 310 C-84.30681533 319.49209929 -83.13223689 328.72135467 -82 338.125 C-81.80676374 339.7655629 -81.61405114 341.40618758 -81.421875 343.046875 C-80.95395126 347.03198785 -80.47894794 351.01619769 -80 355 C-76.05001597 356.31666134 -74.81315076 355.33351942 -71.0390625 353.68359375 C-69.84410156 353.16603516 -68.64914063 352.64847656 -67.41796875 352.11523438 C-66.15359713 351.5560997 -64.88927438 350.9968545 -63.625 350.4375 C-62.40010909 349.90474859 -61.17485165 349.37283905 -59.94921875 348.84179688 C-51.91384765 345.3386495 -43.94441728 341.70411994 -36 338 C-38.40872786 335.31554735 -40.97332151 333.75444378 -44.12890625 332.03125 C-45.1562085 331.46486816 -46.18351074 330.89848633 -47.24194336 330.31494141 C-48.33772705 329.71601074 -49.43351074 329.11708008 -50.5625 328.5 C-59.41534962 323.61491972 -68.14233769 318.6013226 -76.69165039 313.20117188 C-80.08440577 310.83198279 -80.08440577 310.83198279 -84 310 Z M-29.6953125 346.7109375 C-30.87585205 347.29214355 -32.0563916 347.87334961 -33.27270508 348.47216797 C-33.9014151 348.78297302 -34.53012512 349.09377808 -35.17788696 349.41400146 C-48.89927493 356.18619881 -62.78410605 362.3247937 -77 368 C-76.52059492 377.10975016 -74.98683162 385.74568373 -72.9375 394.625 C-72.78449432 395.29375153 -72.63148865 395.96250305 -72.47384644 396.65151978 C-64.85539215 429.79657736 -54.70433643 472.18558115 -25.25 492.9375 C-19.27718323 494.89015164 -13.27040753 495.21390673 -7.31640625 493.00390625 C16.6408775 479.8105815 27.03355829 445.35440964 34.109375 420.93359375 C36.22541158 413.33059952 38.12476768 405.68014494 39.9375 398 C40.23229248 396.75404053 40.52708496 395.50808105 40.83081055 394.22436523 C42.36759044 387.4913055 43.54816713 380.89566469 44 374 C37.99297179 370.89146792 31.89467715 368.27776781 25.625 365.75 C13.21522271 360.68222659 1.13327567 354.9755421 -10.95068359 349.18261719 C-11.6691748 348.83967621 -12.38766602 348.49673523 -13.12792969 348.1434021 C-14.48786787 347.49381723 -15.84618692 346.8408286 -17.20263672 346.18399048 C-22.76364285 343.52839862 -24.22744925 343.99250388 -29.6953125 346.7109375 Z " fill="#5A5A5A" transform="translate(275,5)"/>
<path d="M0 0 C10.4492449 10.4492449 16.36261027 22.56571922 16.87109375 37.41015625 C16.63812479 50.93788729 11.99566375 62.75935231 2.8125 72.8125 C-8.10268844 82.10694834 -20.01473679 87.44435654 -34.4921875 87.05859375 C-47.89026222 85.83529128 -59.94240921 80.74843274 -69.1875 70.8125 C-78.30927674 59.27800273 -82.34681695 46.46037762 -81.1875 31.8125 C-79.22247529 18.93250612 -73.16259869 6.88402599 -62.68359375 -1.09375 C-42.09098365 -14.91979832 -20.24639209 -13.89458281 0 0 Z " fill="#F86363" transform="translate(288.1875,218.1875)"/>
<path d="M0 0 C7.21843373 4.89407224 11.39026099 9.50269289 13.93359375 17.98046875 C14.78315622 26.4760934 14.32659161 34.03427665 9.26171875 41.19921875 C2.55207337 49.06569954 -3.65712175 52.74992952 -13.87890625 53.79296875 C-22.41485902 53.11551218 -29.98479793 50.40898489 -36.1953125 44.41796875 C-41.96685634 37.51993081 -43.30069082 30.06971047 -43.21875 21.265625 C-42.48504339 14.36308415 -39.75764367 8.48112511 -34.8828125 3.5078125 C-32.9312534 1.95949953 -30.98585331 0.69998041 -28.81640625 -0.51953125 C-27.78515625 -1.13828125 -26.75390625 -1.75703125 -25.69140625 -2.39453125 C-17.28671739 -5.58715906 -7.62292829 -4.46861313 0 0 Z " fill="#F86363" transform="translate(227.81640625,28.51953125)"/>
<path d="M0 0 C6.91467978 4.79417798 11.44814517 11.14158857 13.05078125 19.421875 C13.95394151 29.21979537 12.37247412 36.31615857 6.42578125 44.171875 C0.806307 50.32040917 -7.01290702 53.0347133 -15.13671875 53.671875 C-24.146031 53.08110043 -31.39305602 50.16743942 -37.640625 43.66015625 C-43.02272294 36.85147813 -43.83742079 28.83252136 -43.94921875 20.421875 C-42.74791521 12.31588291 -38.16087497 5.81309294 -31.84375 0.74609375 C-22.4581732 -5.81413415 -9.76795584 -5.69131306 0 0 Z " fill="#F86363" transform="translate(129.94921875,365.578125)"/>
<path d="M0 0 C7.10680257 4.69317151 10.61981013 11.25210675 12.4375 19.4375 C13.67392516 28.05646372 11.71193811 35.34314663 7.046875 42.6640625 C1.99132306 48.43356643 -5.56010297 52.40849605 -13.19140625 53.23828125 C-22.08542772 53.51667731 -29.81717246 51.46608831 -36.4375 45.3125 C-41.82778859 39.35888207 -45.15040605 32.12192694 -45 24 C-43.87479228 14.08600765 -39.96132099 7.69314148 -32.6875 0.8125 C-22.44273242 -6.09676186 -10.70552355 -5.82196629 0 0 Z " fill="#F86363" transform="translate(463,285)"/>
<path d="M0 0 C11.04835182 7.11557758 17.98517617 17.89537355 21.359375 30.51953125 C23.87736814 45.42870114 21.10601583 57.6964344 13.359375 70.51953125 C5.3147769 81.08869429 -6.03998164 87.92823319 -19.08203125 90.20703125 C-24.96538099 90.92560832 -30.36907531 91.55247765 -35.640625 88.51953125 C-34.87878906 88.22820312 -34.11695313 87.936875 -33.33203125 87.63671875 C-18.54819014 81.76747846 -8.64795766 74.1032472 -1.828125 59.42578125 C2.90825137 47.8341233 2.64404851 35.24920482 -1.640625 23.51953125 C-7.98008209 10.03560664 -15.95580069 3.3206145 -29.12890625 -2.81640625 C-32.640625 -4.48046875 -32.640625 -4.48046875 -35.640625 -6.48046875 C-23.54285333 -9.88210977 -10.51526075 -6.2453355 0 0 Z " fill="#E55C5C" transform="translate(282.640625,214.48046875)"/>
<path d="M0 0 C10.12998171 -0.78324601 17.05711857 0.80929618 24.875 7.4375 C31.32743753 15.21838055 33.51349293 21.9416979 33.3125 32.00390625 C32.53682354 39.44070434 28.6747679 46.15656753 23 51 C15.70553969 55.51952116 9.57029022 57.16804491 1 57 C0.67 56.34 0.34 55.68 0 55 C0.87011719 54.65388672 0.87011719 54.65388672 1.7578125 54.30078125 C9.8012983 50.94269229 15.35656512 47.10341354 19.078125 39.0078125 C21.43576901 31.31549942 21.30687333 22.87860172 18 15.5 C13.74513015 8.27633678 7.82121101 3.77001223 0 1 C0 0.67 0 0.34 0 0 Z " fill="#E55B5B" transform="translate(110,362)"/>
<path d="M0 0 C10.58772515 -0.81863854 17.51231255 1.33186111 25.875 7.8125 C31.77091897 13.20782208 33.7242299 19.93239104 34.25 27.6875 C34.02320689 36.98601767 30.8425729 43.20076189 24.41015625 49.86328125 C17.77976299 55.74144188 10.77275214 57.47851375 2 57 C-0.21484375 55.98828125 -0.21484375 55.98828125 -2 55 C-1.05640625 54.79697266 -1.05640625 54.79697266 -0.09375 54.58984375 C7.45209076 52.69201934 13.10118086 49.57929401 17.34765625 42.87109375 C21.17807868 35.41618558 22.53483486 27.70958566 20.31640625 19.45703125 C16.48820371 10.22804505 11.37155461 5.65273798 2.1953125 1.84765625 C1.47085938 1.56792969 0.74640625 1.28820312 0 1 C0 0.67 0 0.34 0 0 Z " fill="#E55C5C" transform="translate(208,25)"/>
<path d="M0 0 C9.49700568 -0.64998518 16.35068299 0.92969632 24.3125 6.1875 C30.51745001 12.68105233 33.47951372 20.03748012 34 29 C33.64699563 36.49280245 30.95075651 43.35009085 26 49 C19.2424308 53.96880088 13.16118754 57.17317352 4.75 57.0625 C3.85796875 57.05347656 2.9659375 57.04445313 2.046875 57.03515625 C1.37140625 57.02355469 0.6959375 57.01195312 0 57 C0 56.34 0 55.68 0 55 C0.6290625 54.81566406 1.258125 54.63132812 1.90625 54.44140625 C9.9363 51.72038027 15.26241016 47.35535251 19.16015625 39.73046875 C21.96404627 32.28385851 21.95933227 24.71273514 19.16015625 17.265625 C14.92017251 8.98552206 8.43559832 4.43992637 0 1 C0 0.67 0 0.34 0 0 Z " fill="#E55C5C" transform="translate(442,281)"/>
</svg>
